<svg width="37" height="37" xmlns="http://www.w3.org/2000/svg">
 <g>
  <title>background</title>
  <rect x="-1" y="-1" width="39" height="39" id="canvas_background" fill="none"/>
 </g>

 <g>
  <title>Layer 1</title>
  <path stroke="null" d="m18.435422,1.250011a17.310409,17.24804 0 1 0 17.310409,17.24804a17.343697,17.281208 0 0 0 -17.310409,-17.24804zm0,31.842538a14.647266,14.594498 0 1 1 14.647266,-14.594498a14.663915,14.611077 0 0 1 -14.647266,14.594498zm1.997357,-14.594498a1.997357,1.990154 0 1 1 -1.997357,-1.990154a1.997357,1.990154 0 0 1 1.997357,1.990154zm0,7.960637a1.997357,1.990154 0 1 1 -1.997357,-1.990164a1.997357,1.990154 0 0 1 1.997357,1.990164zm0,-15.921274a1.997357,1.990154 0 1 1 -1.997357,-1.990154a1.997357,1.990154 0 0 1 1.997357,1.990154z" id="svg_1"/>
 </g>
</svg>